<?xml version="1.0" encoding="UTF-8"?>
<svg width="158px" height="21px" viewBox="0 0 158 21" version="1.1" xmlns="http://www.w3.org/2000/svg" xmlns:xlink="http://www.w3.org/1999/xlink">
    <!-- Generator: Sketch 54.1 (76490) - https://sketchapp.com -->
    <title>Instagram</title>
    <desc>Created with Sketch.</desc>
    <g id="Page-1" stroke="none" stroke-width="1" fill="none" fill-rule="evenodd">
        <g id="Desktop-HD" transform="translate(-860.000000, -956.000000)" fill="#4DCCE5">
            <g id="Instagram" transform="translate(860.000000, 955.000000)">
                <path d="M10.4892812,3 C13.2761665,3 13.6191677,3 14.776797,3 C15.4412222,3.00923785 16.099853,3.12374152 16.7276166,3.33915212 C17.1818901,3.50886389 17.592057,3.7768258 17.9281211,4.1234414 C18.2571044,4.48165893 18.4990618,4.90939495 18.6355612,5.37406484 C18.8729498,5.98288568 18.9964367,6.6293033 19,7.28179551 C19,8.3840399 19,8.70199501 19,11.521197 C19,14.340399 19,14.6159601 19,15.7605985 C18.9980821,16.4201303 18.8745837,17.0737916 18.6355612,17.6895262 C18.2943024,18.5910017 17.5750105,19.3022217 16.6633039,19.6396509 C16.0405812,19.8759911 15.3795012,19.9981037 14.7124842,20 C13.6191677,20 13.2761665,20 10.4249685,20 C7.57377049,20 7.31651955,20 6.13745271,20 C5.51328993,19.9412134 4.90408437,19.776279 4.33669609,19.5124688 C3.88377219,19.3502294 3.47350069,19.0894432 3.13619168,18.7493766 C2.78564224,18.4170838 2.51463914,18.0115198 2.34300126,17.5623441 C2.1251459,16.9416252 2.00934269,16.2903855 2,15.6334165 C2,14.5523691 2,14.213217 2,11.394015 C2,8.57481297 2,8.32044888 2,7.15461347 C2.0240897,6.54752744 2.13969743,5.94739791 2.34300126,5.37406484 C2.51463914,4.92488918 2.78564224,4.51932519 3.13619168,4.18703242 C3.47225574,3.84041683 3.8824226,3.57245491 4.33669609,3.40274314 C4.95746178,3.18885089 5.60879156,3.07435834 6.26607818,3.06359102 C7.38083228,3.06359102 7.70239596,3.06359102 10.5535939,3.06359102 L10.4892812,3 Z M10.5864198,1.06481481 C7.7345679,1.06481481 7.36728395,1.06481481 6.2654321,1.06481481 C5.36428481,1.07252152 4.47172522,1.24079095 3.62962963,1.5617284 C2.92773671,1.82126314 2.2928642,2.2346685 1.77160494,2.77160494 C1.2346685,3.2928642 0.821263139,3.92773671 0.561728395,4.62962963 C0.22852438,5.44056366 0.0384660546,6.30313606 0,7.17901235 C0,8.30246914 0,8.66975309 0,11.5 C0,14.3302469 0,14.7191358 0,15.8209877 C0.0318334623,16.7186672 0.221998331,17.6036652 0.561728395,18.4351852 C0.821263139,19.1370781 1.2346685,19.7719506 1.77160494,20.2932099 C2.2928642,20.8301463 2.92773671,21.2435517 3.62962963,21.5030864 C4.44747372,21.8036649 5.3081508,21.971424 6.17901235,22 C7.30246914,22 7.66975309,22 10.5,22 C13.3302469,22 13.7191358,22 14.8209877,22 C15.6990912,21.9733534 16.5671849,21.8055706 17.3919753,21.5030864 C18.8178117,20.9689499 19.9490614,19.8534121 20.5030864,18.4351852 C20.8055706,17.6103948 20.9733534,16.7423011 21,15.8641975 C21,14.7407407 21,14.3950617 21,11.5432099 C21,8.69135802 21,8.32407407 21,7.22222222 C20.971424,6.35136068 20.8036649,5.4906836 20.5030864,4.67283951 C20.249335,3.95547478 19.8355867,3.30529889 19.2932099,2.77160494 C18.7719506,2.2346685 18.1370781,1.82126314 17.4351852,1.5617284 C16.6172129,1.22692436 15.7472684,1.03685246 14.8641975,1 C13.7407407,1 13.3950617,1 10.5432099,1 L10.5864198,1.06481481 Z" id="Shape" fill-rule="nonzero"></path>
                <path d="M10.5000378,6.00004389 C8.27353831,6.00006156 6.2666962,7.34245215 5.41671323,9.4003149 C4.56673026,11.4581777 5.04131002,13.8254915 6.61882223,15.3967133 C8.19633444,16.9679351 10.5655323,17.4330591 12.6199928,16.5748709 C14.6744533,15.7166827 16.0088266,13.7045048 15.999956,11.4780308 C15.9999677,10.0213739 15.4198153,8.62469548 14.3877459,7.59674144 C13.3556764,6.5687874 11.9566882,5.99421726 10.5000378,6.00004389 Z M10.5,15 C8.56700338,15 7,13.4329966 7,11.5 C7,9.56700338 8.56700338,8 10.5,8 C12.4329966,8 14,9.56700338 14,11.5 C14,12.4282577 13.6312511,13.3184964 12.9748737,13.9748737 C12.3184964,14.6312511 11.4282577,15 10.5,15 Z" id="Shape" fill-rule="nonzero"></path>
                <circle id="Oval" fill-rule="nonzero" cx="16.5" cy="11.5" r="1.5"></circle>
                <text id="/theshortcutorg" font-family="CircularStd-Medium, CircularStd" font-size="18" font-weight="400">
                    <tspan x="27" y="18">/theshortcutorg</tspan>
                </text>
            </g>
        </g>
    </g>
</svg>