<?xml version="1.0" encoding="utf-8"?>
<!-- Generator: Adobe Illustrator 23.0.3, SVG Export Plug-In . SVG Version: 6.00 Build 0)  -->
<svg version="1.1" id="Layer_1" xmlns="http://www.w3.org/2000/svg" xmlns:xlink="http://www.w3.org/1999/xlink" x="0px" y="0px"
	 viewBox="0 0 78 78" enable-background="new 0 0 78 78" xml:space="preserve">
<g>
	<path fill="#000" d="M75.9,34L75.9,34l-9.5-6.3V6.6c0-0.7-0.6-1.2-1.2-1.2h-52c-0.7,0-1.2,0.6-1.2,1.2v21.1L2.3,34l0,0
		c-0.3,0.2-0.6,0.6-0.6,1v38.3c0,0.7,0.6,1.2,1.2,1.2h72.2c0.7,0,1.2-0.6,1.2-1.2V35C76.4,34.6,76.2,34.2,75.9,34L75.9,34z
		 M11.9,38.3L8,36.3h3.9V38.3z M4.2,37.1l28.4,15.1L4.2,71V37.1z M39.1,50.9l32,21.2h-64L39.1,50.9L39.1,50.9z M45.5,52.2L74,37.1
		V71L45.5,52.2L45.5,52.2z M66.3,36.3h3.9l-3.9,2.1V36.3z M71.1,33.8h-4.7v-3.1L71.1,33.8z M63.9,7.8v31.8l-20.7,11l-3.4-2.2
		c-0.4-0.3-1-0.3-1.4,0L35,50.6l-20.7-11V7.8L63.9,7.8L63.9,7.8z M11.9,33.8H7.1l4.7-3.1V33.8z"/>
	<path fill="#000" d="M39.1,37.8h9.9c0.7,0,1.2-0.6,1.2-1.2s-0.6-1.2-1.2-1.2h-9.9c-4.8,0-8.6-3.9-8.6-8.6v-0.4
		c0-4.8,3.9-8.6,8.6-8.6s8.6,3.9,8.6,8.6v0.9c0,1-0.8,1.9-1.9,1.9S44,28.3,44,27.3v-1.7c0-2.9-2.4-5.3-5.3-5.3
		c-2.9,0-5.3,2.4-5.3,5.3c0,2.9,2.4,5.3,5.3,5.3c1.3,0,2.6-0.5,3.5-1.3c0.8,1.2,2.1,2.1,3.7,2.1c2.4,0,4.3-1.9,4.3-4.3v-0.9
		c0-6.1-5-11.1-11.1-11.1S28,20.3,28,26.4v0.4C28,32.9,33,37.8,39.1,37.8L39.1,37.8z M38.6,28.4c-1.6,0-2.9-1.3-2.9-2.9
		s1.3-2.9,2.9-2.9s2.9,1.3,2.9,2.9S40.2,28.4,38.6,28.4z"/>
</g>
</svg>
