<?xml version="1.0" encoding="UTF-8"?>
<svg width="168px" height="20px" viewBox="0 0 168 20" version="1.1" xmlns="http://www.w3.org/2000/svg" xmlns:xlink="http://www.w3.org/1999/xlink">
    <!-- Generator: Sketch 54.1 (76490) - https://sketchapp.com -->
    <title>Twitter</title>
    <desc>Created with Sketch.</desc>
    <g id="Page-1" stroke="none" stroke-width="1" fill="none" fill-rule="evenodd">
        <g id="Desktop-HD" transform="translate(-1100.000000, -957.000000)" fill="#FDC81E">
            <g id="Twitter" transform="translate(1100.000000, 955.000000)">
                <path d="M25,4.33261111 C24.0632128,4.73892027 23.069869,5.00849761 22.0521024,5.1326225 C23.1396692,4.5120087 23.9534035,3.52285535 24.3372943,2.35480516 C23.3305343,2.94617918 22.2242605,3.35995039 21.0694698,3.57704479 C19.6257416,2.08232225 17.3898536,1.5963992 15.4291455,2.35123943 C13.4684375,3.10607965 12.1804686,4.94862943 12.1800731,6.99931576 C12.1805411,7.38098473 12.2265527,7.76131165 12.3171846,8.13266523 C8.19003456,7.92380228 4.34640738,6.02666346 1.73674589,2.91036863 C1.28668172,3.67485047 1.05032299,4.54061506 1.0511883,5.42151551 C1.03938113,7.09384169 1.89958613,8.65812191 3.33638026,9.57713025 C2.53436686,9.55088533 1.75060313,9.33747562 1.0511883,8.95489917 L1.0511883,8.95489917 C1.0561123,11.3271009 2.77442697,13.3694212 5.16453382,13.8438577 C4.72478005,13.9589439 4.27166039,14.0186917 3.81627057,14.021638 C3.49682187,14.0456939 3.17593864,14.0456939 2.85648995,14.021638 C3.47953761,16.0716678 5.38937879,17.4982442 7.58683729,17.5550217 C5.79309342,18.9808542 3.55071456,19.7652499 1.23400366,19.7772755 C0.823408439,19.8111927 0.410595217,19.8111927 0,19.7772755 C2.34455471,21.2410068 5.07496353,22.0128697 7.86106033,21.9995294 C11.783462,22.030683 15.5512289,20.5138719 18.3032607,17.7957541 C21.0552925,15.0776363 22.5563721,11.3905302 22.4634369,7.57710177 C22.4634369,7.35487638 22.4634369,7.13265099 22.4634369,6.9104256 C23.4636946,6.20894582 24.3233955,5.33526375 25,4.33261111 Z" id="Path" fill-rule="nonzero"></path>
                <text id="@theshortcutorg" font-family="CircularStd-Medium, CircularStd" font-size="18" font-weight="400">
                    <tspan x="31" y="18">@theshortcutorg</tspan>
                </text>
            </g>
        </g>
    </g>
</svg>